<?xml version="1.0" encoding="utf-8"?>
<!-- Generator: Adobe Illustrator 16.0.4, SVG Export Plug-In . SVG Version: 6.00 Build 0)  -->
<!DOCTYPE svg PUBLIC "-//W3C//DTD SVG 1.1//EN" "http://www.w3.org/Graphics/SVG/1.1/DTD/svg11.dtd">
<svg version="1.1" id="Layer_1" xmlns="http://www.w3.org/2000/svg" xmlns:xlink="http://www.w3.org/1999/xlink" x="0px" y="0px"
	 width="324px" height="360px" viewBox="0 0 324 360" enable-background="new 0 0 324 360" xml:space="preserve">
<g>
	<path fill="#EFC25B" d="M309.3,179.124c-11.298-27.276-34.438-53.279-65.165-73.219c-8.394-5.448-17.008-10.212-25.472-14.182
		c0.001-0.11,0.007-0.221,0.007-0.332c0-23.243-14.068-43.253-34.135-51.983l19.254-19.253c4.381-4.381,4.381-11.486,0-15.866
		c-4.384-4.382-11.486-4.382-15.868,0l-25.786,25.786L136.602,4.541c-4.383-4.382-11.486-4.382-15.868,0
		c-4.381,4.382-4.381,11.486,0,15.866l18.916,18.915c-20.163,8.69-34.318,28.754-34.318,52.067c0,0.111,0.006,0.222,0.007,0.333
		c-8.465,3.97-17.08,8.735-25.475,14.184C49.141,125.847,26,151.85,14.702,179.124c-12,28.968,1.806,62.3,30.776,74.301
		c6.954,2.88,14.269,4.339,21.743,4.339c8.988-0.001,17.589-2.111,25.282-5.924c14.616,24.02,40.655,38.953,69.497,38.953
		c28.841,0,54.881-14.932,69.497-38.949c7.692,3.809,16.296,5.92,25.283,5.92c7.474,0,14.79-1.459,21.743-4.34
		C307.494,241.424,321.3,208.092,309.3,179.124L309.3,179.124z M162,57.16c15.86,0,29.232,10.846,33.102,25.508
		c-8.806-2.577-16.977-3.98-23.966-3.98l-18.274,0.001c-6.989,0-15.159,1.403-23.964,3.981C132.766,68.006,146.14,57.16,162,57.16z
		 M194.189,198.143h-64.378l32.19-78.621L194.189,198.143z M67.218,235.324c-4.512,0-8.937-0.885-13.154-2.631
		c-17.539-7.265-25.896-27.443-18.632-44.98c15.053-36.339,53.894-64.935,85.326-78.312c0.51-0.172,1.005-0.371,1.475-0.609
		c8.346-3.451,16.134-5.819,22.751-6.93l-42.212,103.104c-0.012,0.027-0.024,0.055-0.033,0.081l-3.692,9.017
		c-2.075,5.006-5.231,9.314-9.124,12.729c-0.151,0.119-0.294,0.242-0.438,0.367C83.397,232.32,75.582,235.323,67.218,235.324z
		 M162,268.354c-21.767,0-41.329-11.734-51.63-30.423c3.852-4.498,7.067-9.631,9.424-15.321l0.831-2.027h82.75l0.848,2.07
		c2.352,5.676,5.559,10.797,9.404,15.286C203.324,256.621,183.764,268.354,162,268.354z M269.938,232.691
		c-4.217,1.746-8.644,2.632-13.157,2.632c-8.403,0-16.253-3.03-22.35-8.231c-0.103-0.086-0.204-0.174-0.308-0.257
		c-3.908-3.412-7.076-7.722-9.151-12.73l-3.706-9.05c-0.014-0.032-0.026-0.065-0.04-0.098L179.012,101.85
		c6.626,1.107,14.434,3.482,22.807,6.949c0.432,0.217,0.887,0.398,1.353,0.558c31.425,13.36,70.33,41.977,85.397,78.354
		C295.833,205.25,287.475,225.428,269.938,232.691L269.938,232.691z"/>
	<path fill="#EFC25B" d="M244.406,275.896c-4.384-4.382-11.486-4.382-15.868,0s-4.382,11.486,0,15.866l24.821,24.821
		c2.191,2.19,5.063,3.287,7.935,3.287c2.87,0,5.743-1.096,7.935-3.287c4.382-4.382,4.382-11.485,0-15.866L244.406,275.896z"/>
	<path fill="#EFC25B" d="M162,303.459c-6.198,0-11.22,5.023-11.22,11.22v35.102c0,6.196,5.022,11.22,11.22,11.22
		c6.197,0,11.22-5.023,11.22-11.22v-35.102C173.22,308.482,168.197,303.459,162,303.459z"/>
	<path fill="#EFC25B" d="M79.596,275.896l-24.82,24.82c-4.381,4.382-4.381,11.486,0,15.866c2.192,2.19,5.064,3.287,7.935,3.287
		c2.871,0,5.743-1.096,7.935-3.287l24.819-24.819c4.382-4.382,4.382-11.486,0-15.867C91.082,271.516,83.979,271.516,79.596,275.896z
		"/>
</g>
<g>
</g>
<g>
</g>
<g>
</g>
<g>
</g>
<g>
</g>
<g>
</g>
</svg>
