<svg id="Layer_1" data-name="Layer 1" xmlns="http://www.w3.org/2000/svg" xmlns:xlink="http://www.w3.org/1999/xlink" viewBox="0 0 245 330"><defs><style>.cls-1{fill:url(#linear-gradient);}.cls-2{fill:url(#linear-gradient-2);}.cls-3{fill:url(#linear-gradient-3);}</style><linearGradient id="linear-gradient" x1="26.5" y1="75.5" x2="172.94" y2="348.42" gradientUnits="userSpaceOnUse"><stop offset="0" stop-color="#00f6ff"/><stop offset="0.11" stop-color="#02f3ff"/><stop offset="0.18" stop-color="#07ebfe"/><stop offset="0.23" stop-color="#10dcfd"/><stop offset="0.29" stop-color="#1cc6fb"/><stop offset="0.34" stop-color="#2cabf8"/><stop offset="0.38" stop-color="#4089f5"/><stop offset="0.43" stop-color="#5861f2"/><stop offset="0.47" stop-color="#7334ee"/><stop offset="0.51" stop-color="#9101e9"/><stop offset="0.51" stop-color="#9200e9"/><stop offset="0.57" stop-color="#9e00ec"/><stop offset="0.67" stop-color="#bd00f5"/><stop offset="0.77" stop-color="#e300ff"/></linearGradient><linearGradient id="linear-gradient-2" x1="101.48" y1="46.74" x2="234.14" y2="293.98" gradientUnits="userSpaceOnUse"><stop offset="0" stop-color="#00f6ff"/><stop offset="0.37" stop-color="#9200e9"/><stop offset="0.43" stop-color="#9e00ec"/><stop offset="0.54" stop-color="#bd00f5"/><stop offset="0.65" stop-color="#e300ff"/><stop offset="0.76" stop-color="#e300de"/><stop offset="0.93" stop-color="#e300ad"/></linearGradient><linearGradient id="linear-gradient-3" x1="56.4" y1="106.62" x2="173.49" y2="324.83" gradientUnits="userSpaceOnUse"><stop offset="0" stop-color="#00f6ff"/><stop offset="0.52" stop-color="#e300ff"/><stop offset="0.74" stop-color="#f310bb"/><stop offset="0.92" stop-color="#ff1c8a"/></linearGradient></defs><title>firefly_logos</title><g id="firefly"><path class="cls-1" d="M1.69,280.05,88.61,76.3l10.2,4.34-62.06,146L153.82,101.87,122.1,29,98.81,80.64,88.61,76.3,121.88,2.48,166.94,104Z"/><path class="cls-2" d="M244.3,284.54,130.47,163.3l34.26-36.44,4.52,10.7-23.55,25.82,63.68,67.68-44.64-104.2,8.47-9Z"/><polygon class="cls-3" points="82.82 232.57 122 190.32 122 174.5 69.21 230.74 121.97 328 176.79 230.75 122 174.5 122 190.32 162.81 232.65 121.97 304.79 82.82 232.57"/></g></svg>