<?xml version="1.0" encoding="utf-8"?>
<!-- Generator: Adobe Illustrator 16.0.4, SVG Export Plug-In . SVG Version: 6.00 Build 0)  -->
<!DOCTYPE svg PUBLIC "-//W3C//DTD SVG 1.1//EN" "http://www.w3.org/Graphics/SVG/1.1/DTD/svg11.dtd">
<svg version="1.1" id="Layer_1" xmlns="http://www.w3.org/2000/svg" xmlns:xlink="http://www.w3.org/1999/xlink" x="0px" y="0px"
	 width="180px" height="180px" viewBox="0 0 180 180" enable-background="new 0 0 180 180" xml:space="preserve">
<g>
	<path fill="#FFFFFF" d="M163.65,89.062c-5.649-13.638-17.221-26.64-32.583-36.609c-4.196-2.724-8.504-5.106-12.735-7.091
		c0-0.056,0.004-0.111,0.004-0.166c0-11.622-7.035-21.627-17.068-25.992l9.627-9.626c2.19-2.191,2.19-5.743,0-7.933
		c-2.191-2.191-5.743-2.191-7.934,0L90.067,14.537L77.301,1.771c-2.192-2.191-5.743-2.191-7.934,0s-2.191,5.743,0,7.933l9.458,9.458
		c-10.081,4.345-17.159,14.377-17.159,26.034c0,0.055,0.003,0.111,0.004,0.167c-4.233,1.985-8.54,4.367-12.738,7.091
		C33.57,62.423,22,75.425,16.351,89.062c-6,14.484,0.903,31.15,15.388,37.151c3.477,1.439,7.134,2.17,10.871,2.17
		c4.494-0.002,8.795-1.057,12.641-2.963C62.56,137.43,75.579,144.896,90,144.896c14.42,0,27.44-7.466,34.748-19.475
		c3.847,1.904,8.148,2.961,12.643,2.961c3.736,0,7.395-0.73,10.871-2.17C162.747,120.212,169.65,103.546,163.65,89.062
		L163.65,89.062z M90,28.08c7.93,0,14.616,5.423,16.551,12.754c-4.402-1.289-8.488-1.99-11.982-1.99l-9.138,0
		c-3.495,0-7.58,0.702-11.982,1.991C75.383,33.503,82.07,28.08,90,28.08z M106.094,98.571H73.906l16.095-39.311L106.094,98.571z
		 M42.609,117.162c-2.256,0-4.468-0.442-6.577-1.315c-8.77-3.632-12.949-13.722-9.316-22.49
		c7.526-18.169,26.947-32.467,42.663-39.156c0.255-0.086,0.502-0.186,0.737-0.305c4.173-1.726,8.067-2.91,11.375-3.464
		l-21.106,51.552c-0.006,0.014-0.012,0.026-0.017,0.04l-1.846,4.509c-1.038,2.503-2.616,4.657-4.562,6.364
		c-0.076,0.059-0.147,0.121-0.219,0.184C50.699,115.66,46.791,117.162,42.609,117.162z M90,133.676
		c-10.883,0-20.665-5.867-25.815-15.211c1.926-2.248,3.534-4.814,4.712-7.66l0.415-1.014h41.375l0.424,1.035
		c1.176,2.838,2.779,5.398,4.703,7.643C110.662,127.811,100.882,133.676,90,133.676z M143.969,115.846
		c-2.108,0.873-4.322,1.316-6.578,1.316c-4.201,0-8.127-1.516-11.176-4.115c-0.051-0.044-0.102-0.088-0.154-0.129
		c-1.953-1.707-3.537-3.861-4.574-6.365l-1.854-4.525c-0.006-0.016-0.014-0.033-0.02-0.049L98.506,50.425
		c3.312,0.554,7.217,1.741,11.403,3.475c0.216,0.108,0.443,0.199,0.677,0.279c15.711,6.68,35.164,20.988,42.698,39.177
		C156.916,102.125,152.737,112.214,143.969,115.846L143.969,115.846z"/>
	<path fill="#FFFFFF" d="M131.203,137.447c-2.191-2.19-5.743-2.19-7.934,0c-2.191,2.191-2.191,5.744,0,7.934l12.41,12.41
		c1.096,1.096,2.531,1.645,3.967,1.645s2.872-0.549,3.968-1.645c2.19-2.19,2.19-5.742,0-7.933L131.203,137.447z"/>
	<path fill="#FFFFFF" d="M90,151.229c-3.099,0-5.61,2.512-5.61,5.61v17.551c0,3.098,2.511,5.609,5.61,5.609
		c3.1,0,5.609-2.512,5.609-5.609V156.84C95.609,153.741,93.1,151.229,90,151.229z"/>
	<path fill="#FFFFFF" d="M48.798,137.449l-12.41,12.409c-2.191,2.19-2.191,5.743,0,7.933c1.096,1.096,2.532,1.645,3.967,1.645
		s2.872-0.549,3.967-1.645l12.41-12.409c2.191-2.19,2.191-5.743,0-7.933C54.541,135.258,50.989,135.258,48.798,137.449z"/>
</g>
</svg>
